<svg id="Layer_1" data-name="Layer 1" xmlns="http://www.w3.org/2000/svg" viewBox="0 0 293.09 73.75"><defs><style>.cls-1{fill:#fff;}</style></defs><title>healight-a</title><path class="cls-1" d="M25.6,21a5.81,5.81,0,1,0-5.81,5.8A5.81,5.81,0,0,0,25.6,21Z"/><path class="cls-1" d="M40.12,3.56a3.57,3.57,0,1,0-3.56,3.56A3.56,3.56,0,0,0,40.12,3.56Z"/><circle class="cls-1" cx="69.53" cy="36.94" r="3.56"/><circle class="cls-1" cx="3.56" cy="36.94" r="3.56"/><path class="cls-1" d="M40.12,70.19a3.57,3.57,0,1,0-3.56,3.56A3.56,3.56,0,0,0,40.12,70.19Z"/><path class="cls-1" d="M25.6,53.44a5.81,5.81,0,1,0-5.81,5.8A5.81,5.81,0,0,0,25.6,53.44Z"/><path class="cls-1" d="M58.58,21a5.81,5.81,0,1,0-5.81,5.8A5.81,5.81,0,0,0,58.58,21Z"/><path class="cls-1" d="M58.58,53.44a5.81,5.81,0,1,0-5.81,5.8A5.81,5.81,0,0,0,58.58,53.44Z"/><path class="cls-1" d="M40.12,20.52a3.57,3.57,0,1,0-3.56,3.56A3.57,3.57,0,0,0,40.12,20.52Z"/><path class="cls-1" d="M40.12,53.44A3.57,3.57,0,1,0,36.56,57,3.57,3.57,0,0,0,40.12,53.44Z"/><path class="cls-1" d="M25.6,36.94a5.81,5.81,0,1,0-5.81,5.81A5.81,5.81,0,0,0,25.6,36.94Z"/><path class="cls-1" d="M58.58,36.94a5.81,5.81,0,1,0-5.81,5.81A5.81,5.81,0,0,0,58.58,36.94Z"/><path class="cls-1" d="M43.15,36.94a6.6,6.6,0,1,0-6.59,6.6A6.59,6.59,0,0,0,43.15,36.94Z"/><path class="cls-1" d="M88.87,12.28a2.17,2.17,0,0,1,2.19-2.19,2.15,2.15,0,0,1,2.19,2.19V24.14A13.07,13.07,0,0,1,97,21.88a12.15,12.15,0,0,1,4.52-.85,12.68,12.68,0,0,1,12.71,12.72V53A2.15,2.15,0,0,1,112,55.22,2.17,2.17,0,0,1,109.85,53V33.75a7.88,7.88,0,0,0-.67-3.22,8.7,8.7,0,0,0-1.8-2.64,8,8,0,0,0-2.65-1.77,8.28,8.28,0,0,0-3.21-.63,8.06,8.06,0,0,0-3.18.63,9.07,9.07,0,0,0-2.62,1.69A7.65,7.65,0,0,0,94,30.32a8.46,8.46,0,0,0-.71,3.08V53a2.06,2.06,0,0,1-2.19,2.19,2,2,0,0,1-1.52-.63A2.5,2.5,0,0,1,88.87,53Z"/><path class="cls-1" d="M121.58,40.25a11.9,11.9,0,0,0,1.48,4.2,12.79,12.79,0,0,0,2.79,3.36A13,13,0,0,0,129.63,50a12.69,12.69,0,0,0,9.33-.14,13.31,13.31,0,0,0,4-2.65,2.13,2.13,0,0,1,1.56-.63,2.17,2.17,0,0,1,2.19,2.18,2.09,2.09,0,0,1-.64,1.56,13.27,13.27,0,0,1-5.26,3.71,19.23,19.23,0,0,1-6.75,1.09,17.09,17.09,0,0,1-12-4.8A16.54,16.54,0,0,1,118.4,45a17,17,0,0,1-1.34-6.78,16.59,16.59,0,0,1,1.31-6.61,16.84,16.84,0,0,1,3.6-5.37,17.74,17.74,0,0,1,5.44-3.67A18.63,18.63,0,0,1,134.22,21a15.75,15.75,0,0,1,6.4,1.35,17.46,17.46,0,0,1,5.4,3.67,18.44,18.44,0,0,1,3.74,5.4,15.66,15.66,0,0,1,1.42,6.61,2,2,0,0,1-.71,1.62,2.32,2.32,0,0,1-1.48.57Zm25-4.38a12.73,12.73,0,0,0-1.55-4.1,12.27,12.27,0,0,0-2.79-3.28,13.57,13.57,0,0,0-3.74-2.19,12.44,12.44,0,0,0-8.83,0,13.48,13.48,0,0,0-3.75,2.19,12,12,0,0,0-2.75,3.28,13.15,13.15,0,0,0-1.52,4.1Z"/><path class="cls-1" d="M183.46,48.79a22.14,22.14,0,0,1-5.62,4.49,14.09,14.09,0,0,1-7.1,1.87,17,17,0,0,1-12-4.8A16.54,16.54,0,0,1,155.06,45a16.82,16.82,0,0,1-1.34-6.78,17.29,17.29,0,0,1,1.3-6.68,16.87,16.87,0,0,1,3.61-5.47,16.69,16.69,0,0,1,5.43-3.67A17.12,17.12,0,0,1,170.88,21a15.67,15.67,0,0,1,6.47,1.38,18.11,18.11,0,0,1,5.4,3.71,17.92,17.92,0,0,1,3.71,5.44,16.18,16.18,0,0,1,1.37,6.64V53.11a2.2,2.2,0,0,1-3.74,1.55,2.07,2.07,0,0,1-.63-1.55Zm0-10.59a12.65,12.65,0,0,0-7.77-11.73,12.57,12.57,0,0,0-4.95-1,12.27,12.27,0,0,0-4.91,1,12.68,12.68,0,0,0-6.75,6.78,12.57,12.57,0,0,0-1,5,12.27,12.27,0,0,0,1,4.91,12.76,12.76,0,0,0,6.75,6.75,12.58,12.58,0,0,0,9.71,0,12.78,12.78,0,0,0,6.75-6.64A14.22,14.22,0,0,0,183.46,38.2Z"/><path class="cls-1" d="M192.71,12.28a2.19,2.19,0,1,1,4.38,0V53a2.19,2.19,0,1,1-4.38,0Z"/><path class="cls-1" d="M201.54,13a2.9,2.9,0,1,1,4.94,2,2.9,2.9,0,0,1-4.94-2Zm.7,10.1a2.19,2.19,0,1,1,4.38,0V53a2.13,2.13,0,0,1-.63,1.56,2.23,2.23,0,0,1-3.11,0,2.14,2.14,0,0,1-.64-1.56Z"/><path class="cls-1" d="M239.76,23.86a2.11,2.11,0,0,1,.63-1.55,2.21,2.21,0,0,1,3.11,0,2.12,2.12,0,0,1,.64,1.55V51.13a16.08,16.08,0,0,1-1.35,6.53,17.93,17.93,0,0,1-3.63,5.4,17.07,17.07,0,0,1-5.41,3.68,17.73,17.73,0,0,1-13.35.07A17.33,17.33,0,0,1,215,63.28l-.07-.07a2.07,2.07,0,0,1-.64-1.49,2.31,2.31,0,0,1,2.26-2.26,2,2,0,0,1,1.49.57,13.06,13.06,0,0,0,4,2.75,12.14,12.14,0,0,0,4.94,1,12.49,12.49,0,0,0,4.94-1A12.62,12.62,0,0,0,238.76,56a12.11,12.11,0,0,0,1-4.91V49.57a17.21,17.21,0,0,1-5.62,4.14,16.75,16.75,0,0,1-7.1,1.51A17.07,17.07,0,0,1,220.43,54a16.78,16.78,0,0,1-5.4-3.53,16.54,16.54,0,0,1-3.67-5.37,17,17,0,0,1,3.57-18.75,17.59,17.59,0,0,1,5.44-3.68,18.42,18.42,0,0,1,6.81-1.51,16.39,16.39,0,0,1,6.92,1.62A18,18,0,0,1,239.76,27Zm0,13.92A13.17,13.17,0,0,0,238.59,33a12.52,12.52,0,0,0-2.76-3.89,12.94,12.94,0,0,0-4-2.61,12.17,12.17,0,0,0-4.8-1,12.45,12.45,0,0,0-4.91,1,13.14,13.14,0,0,0-4,2.72,12.8,12.8,0,0,0-2.72,4.07,12.49,12.49,0,0,0-1,4.94,12.27,12.27,0,0,0,1,4.91,13,13,0,0,0,2.72,4,13.14,13.14,0,0,0,4,2.72,12.7,12.7,0,0,0,9.71,0,13.23,13.23,0,0,0,4-2.58,12.18,12.18,0,0,0,2.76-3.81,12.91,12.91,0,0,0,1.17-4.73Z"/><path class="cls-1" d="M248.8,12.28a2.19,2.19,0,1,1,4.38,0V24.14a13.15,13.15,0,0,1,3.74-2.26,12.15,12.15,0,0,1,4.52-.85,12.67,12.67,0,0,1,4.94,1,12.58,12.58,0,0,1,6.79,6.78,12.57,12.57,0,0,1,1,4.95V53a2.14,2.14,0,0,1-.64,1.56,2.11,2.11,0,0,1-1.55.63A2.15,2.15,0,0,1,269.78,53V33.75a8,8,0,0,0-.67-3.22,8.7,8.7,0,0,0-1.8-2.64,8.11,8.11,0,0,0-2.65-1.77,8.36,8.36,0,0,0-3.22-.63,8.06,8.06,0,0,0-3.18.63,8.89,8.89,0,0,0-2.61,1.69,7.68,7.68,0,0,0-1.77,2.51,8.45,8.45,0,0,0-.7,3.08V53a2.13,2.13,0,0,1-.6,1.59,2.17,2.17,0,0,1-1.59.6,2,2,0,0,1-1.52-.63A2.44,2.44,0,0,1,248.8,53Z"/><path class="cls-1" d="M281.79,12.28A2.15,2.15,0,0,1,284,10.09a2.11,2.11,0,0,1,1.55.63,2.14,2.14,0,0,1,.64,1.56v8.61h4.71a2.17,2.17,0,0,1,1.57.64,2.08,2.08,0,0,1,.64,1.55,2.12,2.12,0,0,1-.64,1.56,2.16,2.16,0,0,1-1.57.63h-4.71V53a2.13,2.13,0,0,1-.63,1.56,2.17,2.17,0,0,1-3.06,0,2.13,2.13,0,0,1-.62-1.56V25.27h-4.71a2.19,2.19,0,1,1,0-4.38h4.67Z"/></svg>